<svg width="185" height="37" viewBox="0 0 185 37" fill="none" xmlns="http://www.w3.org/2000/svg">
  <path d="M21.232 34C20.4622 35.3333 18.5377 35.3333 17.7679 34L0.880452 4.75C0.110651 3.41666 1.0729 1.75 2.6125 1.75L36.3875 1.75C37.9271 1.75 38.8893 3.41667 38.1195 4.75L21.232 34Z" fill="white"/>
  <path d="M21.232 34C20.4622 35.3333 18.5377 35.3333 17.7679 34L0.880452 4.75C0.110651 3.41666 1.0729 1.75 2.6125 1.75L36.3875 1.75C37.9271 1.75 38.8893 3.41667 38.1195 4.75L21.232 34Z" fill="white"/>
  <path fill-rule="evenodd" clip-rule="evenodd" d="M17.7679 34C18.5377 35.3333 20.4622 35.3333 21.232 34L38.1195 4.75C38.1237 4.74273 38.1279 4.73544 38.132 4.72814L23.8299 29.5L7.80846 1.75H2.61248C1.07288 1.75 0.110629 3.41666 0.88043 4.75L17.7679 34Z" fill="#995BB9"/>
  <path d="M60.67 9.91V16.03H67.87V18.82H60.67V25.21H68.77V28H57.25V7.12H68.77V9.91H60.67ZM101.512 28L96.7124 19.66H94.1024V28H90.6824V7.15H97.8824C99.4824 7.15 100.832 7.43 101.932 7.99C103.052 8.55 103.882 9.3 104.422 10.24C104.982 11.18 105.262 12.23 105.262 13.39C105.262 14.75 104.862 15.99 104.062 17.11C103.282 18.21 102.072 18.96 100.432 19.36L105.592 28H101.512ZM94.1024 16.93H97.8824C99.1624 16.93 100.122 16.61 100.762 15.97C101.422 15.33 101.752 14.47 101.752 13.39C101.752 12.31 101.432 11.47 100.792 10.87C100.152 10.25 99.1824 9.94 97.8824 9.94H94.1024V16.93ZM140.808 7.15V9.94H135.258V28H131.838V9.94H126.258V7.15H140.808ZM171.481 28.21C169.541 28.21 167.751 27.76 166.111 26.86C164.491 25.94 163.201 24.67 162.241 23.05C161.301 21.41 160.831 19.57 160.831 17.53C160.831 15.49 161.301 13.66 162.241 12.04C163.201 10.42 164.491 9.16 166.111 8.26C167.751 7.34 169.541 6.88 171.481 6.88C173.441 6.88 175.231 7.34 176.851 8.26C178.491 9.16 179.781 10.42 180.721 12.04C181.661 13.66 182.131 15.49 182.131 17.53C182.131 19.57 181.661 21.41 180.721 23.05C179.781 24.67 178.491 25.94 176.851 26.86C175.231 27.76 173.441 28.21 171.481 28.21ZM171.481 25.24C172.861 25.24 174.091 24.93 175.171 24.31C176.251 23.67 177.091 22.77 177.691 21.61C178.311 20.43 178.621 19.07 178.621 17.53C178.621 15.99 178.311 14.64 177.691 13.48C177.091 12.32 176.251 11.43 175.171 10.81C174.091 10.19 172.861 9.88 171.481 9.88C170.101 9.88 168.871 10.19 167.791 10.81C166.711 11.43 165.861 12.32 165.241 13.48C164.641 14.64 164.341 15.99 164.341 17.53C164.341 19.07 164.641 20.43 165.241 21.61C165.861 22.77 166.711 23.67 167.791 24.31C168.871 24.93 170.101 25.24 171.481 25.24Z" fill="white"/>
</svg>
